<svg width="1356" height="1251" xmlns="http://www.w3.org/2000/svg" xmlns:xlink="http://www.w3.org/1999/xlink" xml:space="preserve" overflow="hidden"><defs><clipPath id="clip0"><rect x="1705" y="275" width="1356" height="1251"/></clipPath><clipPath id="clip1"><rect x="1705" y="275" width="1356" height="1251"/></clipPath></defs><g clip-path="url(#clip0)" transform="translate(-1705 -275)"><g clip-path="url(#clip1)"><rect x="1706" y="276" width="1352" height="1247" fill="#FFFFFF" fill-opacity="1"/><path d="M2096.5 1290C2096.5 1247.2 2131.42 1212.5 2174.5 1212.5 2217.58 1212.5 2252.5 1247.2 2252.5 1290 2252.5 1332.8 2217.58 1367.5 2174.5 1367.5 2131.42 1367.5 2096.5 1332.8 2096.5 1290Z" stroke="#253134" stroke-width="3.4375" stroke-linecap="butt" stroke-linejoin="miter" stroke-miterlimit="8" stroke-opacity="1" fill="#FFFFFF" fill-rule="evenodd" fill-opacity="1"/><path d="M2044.5 1238.5 2200.42 1238.5" stroke="#253134" stroke-width="3.4375" stroke-linecap="butt" stroke-linejoin="miter" stroke-miterlimit="8" stroke-opacity="1" fill="#FFFFFF" fill-rule="evenodd" fill-opacity="1"/><path d="M0 0 77.9614 51.9743" stroke="#253134" stroke-width="3.4375" stroke-linecap="butt" stroke-linejoin="miter" stroke-miterlimit="8" stroke-opacity="1" fill="#FFFFFF" fill-rule="evenodd" fill-opacity="1" transform="matrix(1 0 0 -1 2122.5 1290.47)"/><path d="M2122.5 1289.5 2200.46 1341.47" stroke="#253134" stroke-width="3.4375" stroke-linecap="butt" stroke-linejoin="miter" stroke-miterlimit="8" stroke-opacity="1" fill="#FFFFFF" fill-rule="evenodd" fill-opacity="1"/><path d="M2044.5 1341.5 2200.42 1341.5" stroke="#253134" stroke-width="3.4375" stroke-linecap="butt" stroke-linejoin="miter" stroke-miterlimit="8" stroke-opacity="1" fill="#FFFFFF" fill-rule="evenodd" fill-opacity="1"/><path d="M2174.5 1471.5 2694.24 1471.5" stroke="#0070C0" stroke-width="3.4375" stroke-linecap="butt" stroke-linejoin="miter" stroke-miterlimit="8" stroke-opacity="1" fill="#FFFFFF" fill-rule="evenodd" fill-opacity="1"/><path d="M0 0 0.000360892 103.949" fill="#FFFFFF" fill-rule="evenodd" fill-opacity="1" transform="matrix(1 0 0 -1 2174.5 1471.45)"/><path d="M1.71875-5.96722e-06 1.71906 90.1985-1.71844 90.1985-1.71875 5.96722e-06ZM9.16696 85.6152 0.000360892 103.949-9.16637 85.6153Z" fill="#0070C0" fill-rule="nonzero" fill-opacity="1" transform="matrix(1 0 0 -1 2174.5 1471.45)"/><path d="M2096.5 1004.5C2096.5 961.422 2131.42 926.5 2174.5 926.5 2217.58 926.5 2252.5 961.422 2252.5 1004.5 2252.5 1047.58 2217.58 1082.5 2174.5 1082.5 2131.42 1082.5 2096.5 1047.58 2096.5 1004.5Z" stroke="#253134" stroke-width="3.4375" stroke-linecap="butt" stroke-linejoin="miter" stroke-miterlimit="8" stroke-opacity="1" fill="#FFFFFF" fill-rule="evenodd" fill-opacity="1"/><path d="M2044.5 952.5 2200.42 952.5" stroke="#253134" stroke-width="3.4375" stroke-linecap="butt" stroke-linejoin="miter" stroke-miterlimit="8" stroke-opacity="1" fill="#FFFFFF" fill-rule="evenodd" fill-opacity="1"/><path d="M0 0 77.9614 51.9743" stroke="#253134" stroke-width="3.4375" stroke-linecap="butt" stroke-linejoin="miter" stroke-miterlimit="8" stroke-opacity="1" fill="#FFFFFF" fill-rule="evenodd" fill-opacity="1" transform="matrix(1 0 0 -1 2122.5 1004.47)"/><path d="M2122.5 1004.5 2200.46 1056.47" stroke="#253134" stroke-width="3.4375" stroke-linecap="butt" stroke-linejoin="miter" stroke-miterlimit="8" stroke-opacity="1" fill="#FFFFFF" fill-rule="evenodd" fill-opacity="1"/><path d="M2044.5 1056.5 2200.42 1056.5" stroke="#253134" stroke-width="3.4375" stroke-linecap="butt" stroke-linejoin="miter" stroke-miterlimit="8" stroke-opacity="1" fill="#FFFFFF" fill-rule="evenodd" fill-opacity="1"/><path d="M2096.5 718.5C2096.5 675.422 2131.42 640.5 2174.5 640.5 2217.58 640.5 2252.5 675.422 2252.5 718.5 2252.5 761.578 2217.58 796.5 2174.5 796.5 2131.42 796.5 2096.5 761.578 2096.5 718.5Z" stroke="#253134" stroke-width="3.4375" stroke-linecap="butt" stroke-linejoin="miter" stroke-miterlimit="8" stroke-opacity="1" fill="#FFFFFF" fill-rule="evenodd" fill-opacity="1"/><path d="M1914.5 666.5 2044.44 666.5" fill="#FFFFFF" fill-rule="evenodd" fill-opacity="1"/><path d="M1914.5 664.781 2030.69 664.782 2030.69 668.219 1914.5 668.219ZM2026.1 657.334 2044.44 666.5 2026.1 675.667Z" fill="#253134" fill-rule="nonzero" fill-opacity="1"/><path d="M0 0 77.9614 51.9743" stroke="#253134" stroke-width="3.4375" stroke-linecap="butt" stroke-linejoin="miter" stroke-miterlimit="8" stroke-opacity="1" fill="#FFFFFF" fill-rule="evenodd" fill-opacity="1" transform="matrix(1 0 0 -1 2122.5 718.474)"/><path d="M2122.5 718.5 2200.46 770.474" stroke="#253134" stroke-width="3.4375" stroke-linecap="butt" stroke-linejoin="miter" stroke-miterlimit="8" stroke-opacity="1" fill="#FFFFFF" fill-rule="evenodd" fill-opacity="1"/><path d="M2044.5 770.5 2200.42 770.5" stroke="#253134" stroke-width="3.4375" stroke-linecap="butt" stroke-linejoin="miter" stroke-miterlimit="8" stroke-opacity="1" fill="#FFFFFF" fill-rule="evenodd" fill-opacity="1"/><path d="M0 0 0.000360892 129.936" fill="#FFFFFF" fill-rule="evenodd" fill-opacity="1" transform="matrix(1 0 0 -1 2174.5 1212.44)"/><path d="M1.71875-4.77378e-06 1.71907 116.186-1.71843 116.186-1.71875 4.77378e-06ZM9.16698 111.602 0.000360892 129.936-9.16636 111.602Z" fill="#0070C0" fill-rule="nonzero" fill-opacity="1" transform="matrix(1 0 0 -1 2174.5 1212.44)"/><path d="M0 0 0.000360892 129.936" fill="#FFFFFF" fill-rule="evenodd" fill-opacity="1" transform="matrix(1 0 0 -1 2174.5 926.436)"/><path d="M1.71875-4.77378e-06 1.71907 116.186-1.71843 116.186-1.71875 4.77378e-06ZM9.16698 111.602 0.000360892 129.936-9.16636 111.602Z" fill="#FF0000" fill-rule="nonzero" fill-opacity="1" transform="matrix(1 0 0 -1 2174.5 926.436)"/><path d="M0 130 26 0 77.9998 0 104 130Z" stroke="#253134" stroke-width="3.4375" stroke-linecap="butt" stroke-linejoin="miter" stroke-miterlimit="8" stroke-opacity="1" fill="#FFFFFF" fill-rule="evenodd" fill-opacity="1" transform="matrix(6.12323e-17 1 1 -6.12323e-17 2434.5 380.5)"/><text fill="#000000" fill-opacity="1" font-family="Calibri,Calibri_MSFontService,sans-serif" font-style="normal" font-variant="normal" font-weight="400" font-stretch="normal" font-size="41" text-anchor="start" direction="ltr" writing-mode="lr-tb" unicode-bidi="normal" text-decoration="none" transform="matrix(1 0 0 1 2433.83 355)">Turbine</text><path d="M2564.5 484.5 2564.5 536.474" stroke="#FF0000" stroke-width="3.4375" stroke-linecap="butt" stroke-linejoin="miter" stroke-miterlimit="8" stroke-opacity="1" fill="#FFFFFF" fill-rule="evenodd" fill-opacity="1"/><path d="M2174.5 536.5 2174.5 640.449" stroke="#FF0000" stroke-width="3.4375" stroke-linecap="butt" stroke-linejoin="miter" stroke-miterlimit="8" stroke-opacity="1" fill="#FFFFFF" fill-rule="evenodd" fill-opacity="1"/><path d="M2174.5 536.5 2434.37 536.5" stroke="#FF0000" stroke-width="3.4375" stroke-linecap="butt" stroke-linejoin="miter" stroke-miterlimit="8" stroke-opacity="1" fill="#FFFFFF" fill-rule="evenodd" fill-opacity="1"/><path d="M0 0 0.000360892 77.9614" fill="#FFFFFF" fill-rule="evenodd" fill-opacity="1" transform="matrix(1 0 0 -1 2434.5 536.461)"/><path d="M1.71875-7.95629e-06 1.71905 64.2114-1.71845 64.2114-1.71875 7.95629e-06ZM9.16694 59.628 0.000360892 77.9614-9.16639 59.6281Z" fill="#FF0000" fill-rule="nonzero" fill-opacity="1" transform="matrix(1 0 0 -1 2434.5 536.461)"/><path d="M2564.5 536.5 2694.44 536.5" stroke="#FF0000" stroke-width="3.4375" stroke-linecap="butt" stroke-linejoin="miter" stroke-miterlimit="8" stroke-opacity="1" fill="#FFFFFF" fill-rule="evenodd" fill-opacity="1"/><path d="M2694.5 536.5 2694.5 926.307" fill="#FFFFFF" fill-rule="evenodd" fill-opacity="1"/><path d="M2696.22 536.5 2696.22 912.557 2692.78 912.557 2692.78 536.5ZM2703.67 907.974 2694.5 926.307 2685.33 907.974Z" fill="#FF0000" fill-rule="nonzero" fill-opacity="1"/><path d="M2616.5 1004.5C2616.5 961.422 2651.42 926.5 2694.5 926.5 2737.58 926.5 2772.5 961.422 2772.5 1004.5 2772.5 1047.58 2737.58 1082.5 2694.5 1082.5 2651.42 1082.5 2616.5 1047.58 2616.5 1004.5Z" stroke="#253134" stroke-width="3.4375" stroke-linecap="butt" stroke-linejoin="miter" stroke-miterlimit="8" stroke-opacity="1" fill="#FFFFFF" fill-rule="evenodd" fill-opacity="1"/><text fill="#000000" fill-opacity="1" font-family="Calibri,Calibri_MSFontService,sans-serif" font-style="normal" font-variant="normal" font-weight="400" font-stretch="normal" font-size="41" text-anchor="start" direction="ltr" writing-mode="lr-tb" unicode-bidi="normal" text-decoration="none" transform="matrix(1 0 0 1 2784.71 1018)">Condenser</text><path d="M0 0 0.000360892 389.807" stroke="#0070C0" stroke-width="3.4375" stroke-linecap="butt" stroke-linejoin="miter" stroke-miterlimit="8" stroke-opacity="1" fill="#FFFFFF" fill-rule="evenodd" fill-opacity="1" transform="matrix(1 0 0 -1 2694.5 1472.31)"/><path d="M2746.46 1004.47 2668.5 952.5" stroke="#253134" stroke-width="3.4375" stroke-linecap="butt" stroke-linejoin="miter" stroke-miterlimit="8" stroke-opacity="1" fill="#FFFFFF" fill-rule="evenodd" fill-opacity="1"/><path d="M0 0 77.9614 51.9743" stroke="#253134" stroke-width="3.4375" stroke-linecap="butt" stroke-linejoin="miter" stroke-miterlimit="8" stroke-opacity="1" fill="#FFFFFF" fill-rule="evenodd" fill-opacity="1" transform="matrix(-1 0 0 1 2746.46 1004.5)"/><path d="M0 0 181.91 0.000360892" stroke="#253134" stroke-width="3.4375" stroke-linecap="butt" stroke-linejoin="miter" stroke-miterlimit="8" stroke-opacity="1" fill="#FFFFFF" fill-rule="evenodd" fill-opacity="1" transform="matrix(-1 0 0 1 2850.41 1056.5)"/><path d="M0 0 181.91 0.000360892" stroke="#253134" stroke-width="3.4375" stroke-linecap="butt" stroke-linejoin="miter" stroke-miterlimit="8" stroke-opacity="1" fill="#FFFFFF" fill-rule="evenodd" fill-opacity="1" transform="matrix(-1 0 0 1 2850.41 952.5)"/><path d="M2044.5 770.5 2044.5 874.448" fill="#FFFFFF" fill-rule="evenodd" fill-opacity="1"/><path d="M2046.22 770.5 2046.22 860.698 2042.78 860.698 2042.78 770.5ZM2053.67 856.115 2044.5 874.448 2035.33 856.115Z" fill="#253134" fill-rule="nonzero" fill-opacity="1"/><path d="M2044.5 666.5 2200.42 666.5" stroke="#253134" stroke-width="3.4375" stroke-linecap="butt" stroke-linejoin="miter" stroke-miterlimit="8" stroke-opacity="1" fill="#FFFFFF" fill-rule="evenodd" fill-opacity="1"/><path d="M0 0 129.936 0.000360892" fill="#FFFFFF" fill-rule="evenodd" fill-opacity="1" transform="matrix(-1 0 0 1 2044.44 1341.5)"/><path d="M4.77378e-06-1.71875 116.186-1.71843 116.186 1.71907-4.77378e-06 1.71875ZM111.602-9.16636 129.936 0.000360892 111.602 9.16698Z" fill="#253134" fill-rule="nonzero" fill-opacity="1" transform="matrix(-1 0 0 1 2044.44 1341.5)"/><path d="M2694.5 432.5C2694.5 403.781 2717.78 380.5 2746.5 380.5 2775.22 380.5 2798.5 403.781 2798.5 432.5 2798.5 461.219 2775.22 484.5 2746.5 484.5 2717.78 484.5 2694.5 461.219 2694.5 432.5Z" stroke="#253134" stroke-width="3.4375" stroke-linecap="butt" stroke-linejoin="miter" stroke-miterlimit="8" stroke-opacity="1" fill="#FFFFFF" fill-rule="evenodd" fill-opacity="1"/><text fill="#000000" fill-opacity="1" font-family="Calibri,Calibri_MSFontService,sans-serif" font-style="normal" font-variant="normal" font-weight="400" font-stretch="normal" font-size="41" text-anchor="start" direction="ltr" writing-mode="lr-tb" unicode-bidi="normal" text-decoration="none" transform="matrix(1 0 0 1 2732.84 446)">G</text><text fill="#000000" fill-opacity="1" font-family="Calibri,Calibri_MSFontService,sans-serif" font-style="normal" font-variant="normal" font-weight="400" font-stretch="normal" font-size="41" text-anchor="start" direction="ltr" writing-mode="lr-tb" unicode-bidi="normal" text-decoration="none" transform="matrix(1 0 0 1 2659.51 355)">Generator</text><path d="M2564.5 425.5 2694.44 425.5" stroke="#253134" stroke-width="3.4375" stroke-linecap="butt" stroke-linejoin="miter" stroke-miterlimit="8" stroke-opacity="1" fill="#FFFFFF" fill-rule="evenodd" fill-opacity="1"/><path d="M2564.5 438.5 2694.44 438.5" stroke="#253134" stroke-width="3.4375" stroke-linecap="butt" stroke-linejoin="miter" stroke-miterlimit="8" stroke-opacity="1" fill="#FFFFFF" fill-rule="evenodd" fill-opacity="1"/><text fill="#000000" fill-opacity="1" font-family="Cambria Math,Cambria Math_MSFontService,sans-serif" font-style="normal" font-variant="normal" font-weight="400" font-stretch="normal" font-size="41" text-anchor="start" direction="ltr" writing-mode="lr-tb" unicode-bidi="normal" text-decoration="none" transform="matrix(1 0 0 1 1981.43 875)">ğ‘‡</text><text fill="#000000" fill-opacity="1" font-family="Cambria Math,Cambria Math_MSFontService,sans-serif" font-style="normal" font-variant="normal" font-weight="400" font-stretch="normal" font-size="30" text-anchor="start" direction="ltr" writing-mode="lr-tb" unicode-bidi="normal" text-decoration="none" transform="matrix(1 0 0 1 2000.68 883)">1</text><path d="M0 0 0.000360892 77.9614" stroke="#253134" stroke-width="3.4375" stroke-linecap="butt" stroke-linejoin="miter" stroke-miterlimit="8" stroke-opacity="1" fill="#FFFFFF" fill-rule="evenodd" fill-opacity="1" transform="matrix(1 0 0 -1 2044.5 952.461)"/><path d="M2044.5 1056.5 2044.5 1160.45" fill="#FFFFFF" fill-rule="evenodd" fill-opacity="1"/><path d="M2046.22 1056.5 2046.22 1146.7 2042.78 1146.7 2042.78 1056.5ZM2053.67 1142.12 2044.5 1160.45 2035.33 1142.12Z" fill="#253134" fill-rule="nonzero" fill-opacity="1"/><path d="M0 0 0.000360892 77.9614" stroke="#253134" stroke-width="3.4375" stroke-linecap="butt" stroke-linejoin="miter" stroke-miterlimit="8" stroke-opacity="1" fill="#FFFFFF" fill-rule="evenodd" fill-opacity="1" transform="matrix(1 0 0 -1 2044.5 1238.46)"/><text fill="#000000" fill-opacity="1" font-family="Cambria Math,Cambria Math_MSFontService,sans-serif" font-style="normal" font-variant="normal" font-weight="400" font-stretch="normal" font-size="41" text-anchor="start" direction="ltr" writing-mode="lr-tb" unicode-bidi="normal" text-decoration="none" transform="matrix(1 0 0 1 1980.95 1161)">ğ‘‡</text><text fill="#000000" fill-opacity="1" font-family="Cambria Math,Cambria Math_MSFontService,sans-serif" font-style="normal" font-variant="normal" font-weight="400" font-stretch="normal" font-size="30" text-anchor="start" direction="ltr" writing-mode="lr-tb" unicode-bidi="normal" text-decoration="none" transform="matrix(1 0 0 1 2001.17 1169)">2</text><text fill="#000000" fill-opacity="1" font-family="Cambria Math,Cambria Math_MSFontService,sans-serif" font-style="normal" font-variant="normal" font-weight="400" font-stretch="normal" font-size="41" text-anchor="start" direction="ltr" writing-mode="lr-tb" unicode-bidi="normal" text-decoration="none" transform="matrix(1 0 0 1 1851.72 1356)">ğ‘‡</text><text fill="#000000" fill-opacity="1" font-family="Cambria Math,Cambria Math_MSFontService,sans-serif" font-style="normal" font-variant="normal" font-weight="400" font-stretch="normal" font-size="30" text-anchor="start" direction="ltr" writing-mode="lr-tb" unicode-bidi="normal" text-decoration="none" transform="matrix(1 0 0 1 1870.71 1364)">ğ‘Ÿ</text><text fill="#000000" fill-opacity="1" font-family="Cambria Math,Cambria Math_MSFontService,sans-serif" font-style="normal" font-variant="normal" font-weight="400" font-stretch="normal" font-size="41" text-anchor="start" direction="ltr" writing-mode="lr-tb" unicode-bidi="normal" text-decoration="none" transform="matrix(1 0 0 1 1736.78 680)">ğ‘‡</text><text fill="#000000" fill-opacity="1" font-family="Cambria Math,Cambria Math_MSFontService,sans-serif" font-style="normal" font-variant="normal" font-weight="400" font-stretch="normal" font-size="30" text-anchor="start" direction="ltr" writing-mode="lr-tb" unicode-bidi="normal" text-decoration="none" transform="matrix(1 0 0 1 1756.99 688)">mixed</text><text fill="#000000" fill-opacity="1" font-family="Cambria Math,Cambria Math_MSFontService,sans-serif" font-style="normal" font-variant="normal" font-weight="400" font-stretch="normal" font-size="30" text-anchor="start" direction="ltr" writing-mode="lr-tb" unicode-bidi="normal" text-decoration="none" transform="matrix(1 0 0 1 1846.94 688)"> </text><text fill="#000000" fill-opacity="1" font-family="Cambria Math,Cambria Math_MSFontService,sans-serif" font-style="normal" font-variant="normal" font-weight="400" font-stretch="normal" font-size="30" text-anchor="start" direction="ltr" writing-mode="lr-tb" unicode-bidi="normal" text-decoration="none" transform="matrix(1 0 0 1 1853.81 688)">oil</text><text fill="#000000" fill-opacity="1" font-family="Cambria Math,Cambria Math_MSFontService,sans-serif" font-style="normal" font-variant="normal" font-weight="400" font-stretch="normal" font-size="41" text-anchor="start" direction="ltr" writing-mode="lr-tb" unicode-bidi="normal" text-decoration="none" transform="matrix(1 0 0 1 2232.27 458)">ğ‘š</text><path d="M-5.76562-23.1226C-6.40625-23.1226-6.9401-23.3461-7.36719-23.7932-7.79427-24.2403-8.00781-24.8042-8.00781-25.4849-8.00781-26.1655-7.79427-26.7294-7.36719-27.1765-6.9401-27.6236-6.40625-27.8472-5.76562-27.8472-5.13835-27.8472-4.61117-27.6236-4.18408-27.1765-3.757-26.7294-3.54346-26.1655-3.54346-25.4849-3.54346-24.8042-3.757-24.2403-4.18408-23.7932-4.61117-23.3461-5.13835-23.1226-5.76562-23.1226Z" fill="#000000" fill-rule="nonzero" fill-opacity="1" transform="matrix(1 0 0 1 2257.4 458)"/><text fill="#000000" fill-opacity="0" font-family="Arial,Arial_MSFontService,sans-serif" font-size="4.72461" direction="ltr" writing-mode="lr-tb" x="-8.00781" y="-23.7131">áˆ¶</text><text fill="#000000" fill-opacity="1" font-family="Cambria Math,Cambria Math_MSFontService,sans-serif" font-style="normal" font-variant="normal" font-weight="400" font-stretch="normal" font-size="41" text-anchor="start" direction="ltr" writing-mode="lr-tb" unicode-bidi="normal" text-decoration="none" transform="matrix(1 0 0 1 2267.35 458)"> </text><text fill="#000000" fill-opacity="1" font-family="Cambria Math,Cambria Math_MSFontService,sans-serif" font-style="normal" font-variant="normal" font-weight="400" font-stretch="normal" font-size="30" text-anchor="start" direction="ltr" writing-mode="lr-tb" unicode-bidi="normal" text-decoration="none" transform="matrix(1 0 0 1 2276.52 466)">steam</text><text fill="#000000" fill-opacity="1" font-family="Cambria Math,Cambria Math_MSFontService,sans-serif" font-style="normal" font-variant="normal" font-weight="400" font-stretch="normal" font-size="41" text-anchor="start" direction="ltr" writing-mode="lr-tb" unicode-bidi="normal" text-decoration="none" transform="matrix(1 0 0 1 2006.66 642)">ğ‘„</text><path d="M-5.76562-23.1226C-6.40625-23.1226-6.9401-23.3461-7.36719-23.7932-7.79427-24.2403-8.00781-24.8042-8.00781-25.4849-8.00781-26.1655-7.79427-26.7294-7.36719-27.1765-6.9401-27.6236-6.40625-27.8472-5.76562-27.8472-5.13835-27.8472-4.61117-27.6236-4.18408-27.1765-3.757-26.7294-3.54346-26.1655-3.54346-25.4849-3.54346-24.8042-3.757-24.2403-4.18408-23.7932-4.61117-23.3461-5.13835-23.1226-5.76562-23.1226Z" fill="#000000" fill-rule="nonzero" fill-opacity="1" transform="matrix(1 0 0 1 2029.78 634)"/><text fill="#000000" fill-opacity="0" font-family="Arial,Arial_MSFontService,sans-serif" font-size="4.72461" direction="ltr" writing-mode="lr-tb" x="-8.00781" y="-23.7131">áˆ¶</text><text fill="#000000" fill-opacity="1" font-family="Cambria Math,Cambria Math_MSFontService,sans-serif" font-style="normal" font-variant="normal" font-weight="400" font-stretch="normal" font-size="30" text-anchor="start" direction="ltr" writing-mode="lr-tb" unicode-bidi="normal" text-decoration="none" transform="matrix(1 0 0 1 2033.43 651)">oil</text><text fill="#000000" fill-opacity="1" font-family="Cambria Math,Cambria Math_MSFontService,sans-serif" font-style="normal" font-variant="normal" font-weight="400" font-stretch="normal" font-size="41" text-anchor="start" direction="ltr" writing-mode="lr-tb" unicode-bidi="normal" text-decoration="none" transform="matrix(1 0 0 1 2237.03 513)">ğ‘‡</text><text fill="#000000" fill-opacity="1" font-family="Cambria Math,Cambria Math_MSFontService,sans-serif" font-style="normal" font-variant="normal" font-weight="400" font-stretch="normal" font-size="41" text-anchor="start" direction="ltr" writing-mode="lr-tb" unicode-bidi="normal" text-decoration="none" transform="matrix(1 0 0 1 2262.58 513)"> </text><text fill="#000000" fill-opacity="1" font-family="Cambria Math,Cambria Math_MSFontService,sans-serif" font-style="normal" font-variant="normal" font-weight="400" font-stretch="normal" font-size="30" text-anchor="start" direction="ltr" writing-mode="lr-tb" unicode-bidi="normal" text-decoration="none" transform="matrix(1 0 0 1 2271.75 521)">steam</text><text fill="#000000" fill-opacity="1" font-family="Calibri,Calibri_MSFontService,sans-serif" font-style="normal" font-variant="normal" font-weight="400" font-stretch="normal" font-size="41" text-anchor="start" direction="ltr" writing-mode="lr-tb" unicode-bidi="normal" text-decoration="none" transform="matrix(1 0 0 1 2264.97 1304)">HX3 Preheater</text><text fill="#000000" fill-opacity="1" font-family="Calibri,Calibri_MSFontService,sans-serif" font-style="normal" font-variant="normal" font-weight="400" font-stretch="normal" font-size="41" text-anchor="start" direction="ltr" writing-mode="lr-tb" unicode-bidi="normal" text-decoration="none" transform="matrix(1 0 0 1 2264.97 1018)">HX2 Boiler</text><text fill="#000000" fill-opacity="1" font-family="Calibri,Calibri_MSFontService,sans-serif" font-style="normal" font-variant="normal" font-weight="400" font-stretch="normal" font-size="41" text-anchor="start" direction="ltr" writing-mode="lr-tb" unicode-bidi="normal" text-decoration="none" transform="matrix(1 0 0 1 2264.97 732)">HX1 Superheater</text><text fill="#000000" fill-opacity="1" font-family="Cambria Math,Cambria Math_MSFontService,sans-serif" font-style="normal" font-variant="normal" font-weight="400" font-stretch="normal" font-size="41" text-anchor="start" direction="ltr" writing-mode="lr-tb" unicode-bidi="normal" text-decoration="none" transform="matrix(1 0 0 1 2335.26 1447)">ğ‘‡</text><text fill="#000000" fill-opacity="1" font-family="Cambria Math,Cambria Math_MSFontService,sans-serif" font-style="normal" font-variant="normal" font-weight="400" font-stretch="normal" font-size="30" text-anchor="start" direction="ltr" writing-mode="lr-tb" unicode-bidi="normal" text-decoration="none" transform="matrix(1 0 0 1 2355.47 1455)">condensate</text><text fill="#000000" fill-opacity="1" font-family="Cambria Math,Cambria Math_MSFontService,sans-serif" font-style="normal" font-variant="normal" font-weight="400" font-stretch="normal" font-size="41" text-anchor="start" direction="ltr" writing-mode="lr-tb" unicode-bidi="normal" text-decoration="none" transform="matrix(1 0 0 1 2195.65 1161)">ğ‘‡</text><text fill="#000000" fill-opacity="1" font-family="Cambria Math,Cambria Math_MSFontService,sans-serif" font-style="normal" font-variant="normal" font-weight="400" font-stretch="normal" font-size="30" text-anchor="start" direction="ltr" writing-mode="lr-tb" unicode-bidi="normal" text-decoration="none" transform="matrix(1 0 0 1 2215.86 1169)">boil</text><text fill="#000000" fill-opacity="1" font-family="Cambria Math,Cambria Math_MSFontService,sans-serif" font-style="normal" font-variant="normal" font-weight="400" font-stretch="normal" font-size="41" text-anchor="start" direction="ltr" writing-mode="lr-tb" unicode-bidi="normal" text-decoration="none" transform="matrix(1 0 0 1 2195.65 875)">ğ‘‡</text><text fill="#000000" fill-opacity="1" font-family="Cambria Math,Cambria Math_MSFontService,sans-serif" font-style="normal" font-variant="normal" font-weight="400" font-stretch="normal" font-size="30" text-anchor="start" direction="ltr" writing-mode="lr-tb" unicode-bidi="normal" text-decoration="none" transform="matrix(1 0 0 1 2215.86 883)">boil</text></g></g></svg>