<svg width="2291" height="1045" xmlns="http://www.w3.org/2000/svg" xmlns:xlink="http://www.w3.org/1999/xlink" xml:space="preserve" overflow="hidden"><defs><clipPath id="clip0"><rect x="715" y="792" width="2291" height="1045"/></clipPath><clipPath id="clip1"><rect x="715" y="792" width="2291" height="1045"/></clipPath></defs><g clip-path="url(#clip0)" transform="translate(-715 -792)"><g clip-path="url(#clip1)"><rect x="719" y="796" width="2287" height="1039" fill="#FFFFFF" fill-opacity="1"/><path d="M2226.5 1290C2226.5 1247.2 2261.42 1212.5 2304.5 1212.5 2347.58 1212.5 2382.5 1247.2 2382.5 1290 2382.5 1332.8 2347.58 1367.5 2304.5 1367.5 2261.42 1367.5 2226.5 1332.8 2226.5 1290Z" stroke="#253134" stroke-width="3.4375" stroke-linecap="butt" stroke-linejoin="miter" stroke-miterlimit="8" stroke-opacity="1" fill="#FFFFFF" fill-rule="evenodd" fill-opacity="1"/><path d="M849.5 1056.5C849.5 1027.78 872.781 1004.5 901.5 1004.5 930.219 1004.5 953.5 1027.78 953.5 1056.5 953.5 1085.22 930.219 1108.5 901.5 1108.5 872.781 1108.5 849.5 1085.22 849.5 1056.5Z" stroke="#253134" stroke-width="3.4375" stroke-linecap="butt" stroke-linejoin="miter" stroke-miterlimit="8" stroke-opacity="1" fill="#FFFFFF" fill-rule="evenodd" fill-opacity="1"/><path d="M901.5 1004.5 953.474 1056.47" stroke="#253134" stroke-width="3.4375" stroke-linecap="butt" stroke-linejoin="miter" stroke-miterlimit="8" stroke-opacity="1" fill="#FFFFFF" fill-rule="evenodd" fill-opacity="1"/><path d="M0 0 51.9743 51.9743" stroke="#253134" stroke-width="3.4375" stroke-linecap="butt" stroke-linejoin="miter" stroke-miterlimit="8" stroke-opacity="1" fill="#FFFFFF" fill-rule="evenodd" fill-opacity="1" transform="matrix(1 0 0 -1 901.5 1108.47)"/><path d="M953.5 1056.5 1031.46 1056.5" stroke="#253134" stroke-width="3.4375" stroke-linecap="butt" stroke-linejoin="miter" stroke-miterlimit="8" stroke-opacity="1" fill="#FFFFFF" fill-rule="evenodd" fill-opacity="1"/><path d="M849.5 1238C849.5 1209.56 872.781 1186.5 901.5 1186.5 930.219 1186.5 953.5 1209.56 953.5 1238 953.5 1266.44 930.219 1289.5 901.5 1289.5 872.781 1289.5 849.5 1266.44 849.5 1238Z" stroke="#253134" stroke-width="3.4375" stroke-linecap="butt" stroke-linejoin="miter" stroke-miterlimit="8" stroke-opacity="1" fill="#FFFFFF" fill-rule="evenodd" fill-opacity="1"/><path d="M901.5 1186.5 953.474 1238.47" stroke="#253134" stroke-width="3.4375" stroke-linecap="butt" stroke-linejoin="miter" stroke-miterlimit="8" stroke-opacity="1" fill="#FFFFFF" fill-rule="evenodd" fill-opacity="1"/><path d="M0 0 51.9743 51.9743" stroke="#253134" stroke-width="3.4375" stroke-linecap="butt" stroke-linejoin="miter" stroke-miterlimit="8" stroke-opacity="1" fill="#FFFFFF" fill-rule="evenodd" fill-opacity="1" transform="matrix(1 0 0 -1 901.5 1290.47)"/><path d="M849.5 1419.5C849.5 1390.78 872.781 1367.5 901.5 1367.5 930.219 1367.5 953.5 1390.78 953.5 1419.5 953.5 1448.22 930.219 1471.5 901.5 1471.5 872.781 1471.5 849.5 1448.22 849.5 1419.5Z" stroke="#253134" stroke-width="3.4375" stroke-linecap="butt" stroke-linejoin="miter" stroke-miterlimit="8" stroke-opacity="1" fill="#FFFFFF" fill-rule="evenodd" fill-opacity="1"/><path d="M901.5 1367.5 953.474 1419.47" stroke="#253134" stroke-width="3.4375" stroke-linecap="butt" stroke-linejoin="miter" stroke-miterlimit="8" stroke-opacity="1" fill="#FFFFFF" fill-rule="evenodd" fill-opacity="1"/><path d="M0 0 51.9743 51.9743" stroke="#253134" stroke-width="3.4375" stroke-linecap="butt" stroke-linejoin="miter" stroke-miterlimit="8" stroke-opacity="1" fill="#FFFFFF" fill-rule="evenodd" fill-opacity="1" transform="matrix(1 0 0 -1 901.5 1471.47)"/><path d="M953.5 1238.5 1031.46 1238.5" stroke="#253134" stroke-width="3.4375" stroke-linecap="butt" stroke-linejoin="miter" stroke-miterlimit="8" stroke-opacity="1" fill="#FFFFFF" fill-rule="evenodd" fill-opacity="1"/><path d="M953.5 1419.5 1031.46 1419.5" stroke="#253134" stroke-width="3.4375" stroke-linecap="butt" stroke-linejoin="miter" stroke-miterlimit="8" stroke-opacity="1" fill="#FFFFFF" fill-rule="evenodd" fill-opacity="1"/><path d="M0 0 0.000360892 363.82" stroke="#253134" stroke-width="3.4375" stroke-linecap="butt" stroke-linejoin="miter" stroke-miterlimit="8" stroke-opacity="1" fill="#FFFFFF" fill-rule="evenodd" fill-opacity="1" transform="matrix(1 0 0 -1 1031.5 1420.32)"/><path d="M771.5 1056.5 849.461 1056.5" fill="#FFFFFF" fill-rule="evenodd" fill-opacity="1"/><path d="M771.5 1054.78 835.711 1054.78 835.711 1058.22 771.5 1058.22ZM831.128 1047.33 849.461 1056.5 831.128 1065.67Z" fill="#253134" fill-rule="nonzero" fill-opacity="1"/><path d="M771.5 1238.5 849.461 1238.5" fill="#FFFFFF" fill-rule="evenodd" fill-opacity="1"/><path d="M771.5 1236.78 835.711 1236.78 835.711 1240.22 771.5 1240.22ZM831.128 1229.33 849.461 1238.5 831.128 1247.67Z" fill="#253134" fill-rule="nonzero" fill-opacity="1"/><path d="M771.5 1419.5 849.461 1419.5" fill="#FFFFFF" fill-rule="evenodd" fill-opacity="1"/><path d="M771.5 1417.78 835.711 1417.78 835.711 1421.22 771.5 1421.22ZM831.128 1410.33 849.461 1419.5 831.128 1428.67Z" fill="#253134" fill-rule="nonzero" fill-opacity="1"/><path d="M0 0 0.000360892 649.678" stroke="#253134" stroke-width="3.4375" stroke-linecap="butt" stroke-linejoin="miter" stroke-miterlimit="8" stroke-opacity="1" fill="#FFFFFF" fill-rule="evenodd" fill-opacity="1" transform="matrix(1 0 0 -1 771.5 1706.18)"/><path d="M1135.5 1653.5C1135.5 1639.14 1158.56 1627.5 1187 1627.5 1215.44 1627.5 1238.5 1639.14 1238.5 1653.5L1238.5 1757.5C1238.5 1771.86 1215.44 1783.5 1187 1783.5 1158.56 1783.5 1135.5 1771.86 1135.5 1757.5Z" fill="#FFFFFF" fill-rule="evenodd" fill-opacity="1"/><path d="M1238.5 1653.5C1238.5 1667.86 1215.44 1679.5 1187 1679.5 1158.56 1679.5 1135.5 1667.86 1135.5 1653.5" stroke="#253134" stroke-width="3.4375" stroke-linecap="butt" stroke-linejoin="miter" stroke-miterlimit="8" stroke-opacity="1" fill="none" fill-rule="evenodd"/><path d="M1135.5 1653.5C1135.5 1639.14 1158.56 1627.5 1187 1627.5 1215.44 1627.5 1238.5 1639.14 1238.5 1653.5L1238.5 1757.5C1238.5 1771.86 1215.44 1783.5 1187 1783.5 1158.56 1783.5 1135.5 1771.86 1135.5 1757.5Z" stroke="#253134" stroke-width="3.4375" stroke-linecap="butt" stroke-linejoin="miter" stroke-miterlimit="8" stroke-opacity="1" fill="none" fill-rule="evenodd"/><path d="M771.5 1705.5 875.448 1705.5" stroke="#253134" stroke-width="3.4375" stroke-linecap="butt" stroke-linejoin="miter" stroke-miterlimit="8" stroke-opacity="1" fill="#FFFFFF" fill-rule="evenodd" fill-opacity="1"/><text fill="#000000" fill-opacity="1" font-family="Calibri,Calibri_MSFontService,sans-serif" font-style="normal" font-variant="normal" font-weight="400" font-stretch="normal" font-size="41" text-anchor="start" direction="ltr" writing-mode="lr-tb" unicode-bidi="normal" text-decoration="none" transform="matrix(1 0 0 1 1107.15 1603)">Reservoir</text><text fill="#000000" fill-opacity="1" font-family="Calibri,Calibri_MSFontService,sans-serif" font-style="normal" font-variant="normal" font-weight="400" font-stretch="normal" font-size="41" text-anchor="start" direction="ltr" writing-mode="lr-tb" unicode-bidi="normal" text-decoration="none" transform="matrix(1 0 0 1 836.763 1356)">Pump 3</text><path d="M1187.5 926.5 1265.46 926.5" stroke="#253134" stroke-width="3.4375" stroke-linecap="butt" stroke-linejoin="miter" stroke-miterlimit="8" stroke-opacity="1" fill="#FFFFFF" fill-rule="evenodd" fill-opacity="1"/><path d="M1031.5 1238.5 1187.42 1238.5" fill="#FFFFFF" fill-rule="evenodd" fill-opacity="1"/><path d="M1031.5 1236.78 1173.67 1236.78 1173.67 1240.22 1031.5 1240.22ZM1169.09 1229.33 1187.42 1238.5 1169.09 1247.67Z" fill="#253134" fill-rule="nonzero" fill-opacity="1"/><path d="M0 0 0.000360892 493.756" stroke="#253134" stroke-width="3.4375" stroke-linecap="butt" stroke-linejoin="miter" stroke-miterlimit="8" stroke-opacity="1" fill="#FFFFFF" fill-rule="evenodd" fill-opacity="1" transform="matrix(1 0 0 -1 1187.5 1420.26)"/><path d="M1187.5 1056.5 1265.46 1056.5" stroke="#253134" stroke-width="3.4375" stroke-linecap="butt" stroke-linejoin="miter" stroke-miterlimit="8" stroke-opacity="1" fill="#FFFFFF" fill-rule="evenodd" fill-opacity="1"/><path d="M1264.5 1406.5 1290.5 1419.5 1264.5 1432.5Z" stroke="#253134" stroke-width="3.4375" stroke-linecap="butt" stroke-linejoin="miter" stroke-miterlimit="8" stroke-opacity="1" fill="#FFFFFF" fill-rule="evenodd" fill-opacity="1"/><path d="M0 26.0001 12.9999 0 25.9998 26.0001Z" stroke="#253134" stroke-width="3.4375" stroke-linecap="butt" stroke-linejoin="miter" stroke-miterlimit="8" stroke-opacity="1" fill="#FFFFFF" fill-rule="evenodd" fill-opacity="1" transform="matrix(6.12323e-17 1 1 -6.12323e-17 1290.5 1406.5)"/><path d="M1187.5 1419.5 1265.46 1419.5" stroke="#253134" stroke-width="3.4375" stroke-linecap="butt" stroke-linejoin="miter" stroke-miterlimit="8" stroke-opacity="1" fill="#FFFFFF" fill-rule="evenodd" fill-opacity="1"/><path d="M1316.5 926.5 1394.46 926.5" stroke="#253134" stroke-width="3.4375" stroke-linecap="butt" stroke-linejoin="miter" stroke-miterlimit="8" stroke-opacity="1" fill="#FFFFFF" fill-rule="evenodd" fill-opacity="1"/><path d="M1316.5 1056.5 1394.46 1056.5" stroke="#253134" stroke-width="3.4375" stroke-linecap="butt" stroke-linejoin="miter" stroke-miterlimit="8" stroke-opacity="1" fill="#FFFFFF" fill-rule="evenodd" fill-opacity="1"/><path d="M1316.5 1419.5 1394.46 1419.5" stroke="#253134" stroke-width="3.4375" stroke-linecap="butt" stroke-linejoin="miter" stroke-miterlimit="8" stroke-opacity="1" fill="#FFFFFF" fill-rule="evenodd" fill-opacity="1"/><rect x="1394.5" y="913.5" width="338" height="26.0001" stroke="#253134" stroke-width="3.4375" stroke-linecap="butt" stroke-linejoin="miter" stroke-miterlimit="8" stroke-opacity="1" fill="#D9D9D9" fill-opacity="1"/><rect x="1394.5" y="1043.5" width="338" height="25.9998" stroke="#253134" stroke-width="3.4375" stroke-linecap="butt" stroke-linejoin="miter" stroke-miterlimit="8" stroke-opacity="1" fill="#D9D9D9" fill-opacity="1"/><rect x="1394.5" y="1406.5" width="338" height="25.9998" stroke="#253134" stroke-width="3.4375" stroke-linecap="butt" stroke-linejoin="miter" stroke-miterlimit="8" stroke-opacity="1" fill="#D9D9D9" fill-opacity="1"/><path d="M1732.5 926.5 1810.46 926.5" stroke="#253134" stroke-width="3.4375" stroke-linecap="butt" stroke-linejoin="miter" stroke-miterlimit="8" stroke-opacity="1" fill="#FFFFFF" fill-rule="evenodd" fill-opacity="1"/><path d="M1732.5 1056.5 1810.46 1056.5" stroke="#253134" stroke-width="3.4375" stroke-linecap="butt" stroke-linejoin="miter" stroke-miterlimit="8" stroke-opacity="1" fill="#FFFFFF" fill-rule="evenodd" fill-opacity="1"/><path d="M1732.5 1419.5 1810.46 1419.5" stroke="#253134" stroke-width="3.4375" stroke-linecap="butt" stroke-linejoin="miter" stroke-miterlimit="8" stroke-opacity="1" fill="#FFFFFF" fill-rule="evenodd" fill-opacity="1"/><rect x="1810.5" y="1406.5" width="51.9999" height="25.9998" stroke="#253134" stroke-width="3.4375" stroke-linecap="butt" stroke-linejoin="miter" stroke-miterlimit="8" stroke-opacity="1" fill="#FFFFFF" fill-opacity="1"/><path d="M1836.5 1393.5 1836.5 1406.49" stroke="#253134" stroke-width="3.4375" stroke-linecap="butt" stroke-linejoin="miter" stroke-miterlimit="8" stroke-opacity="1" fill="#FFFFFF" fill-rule="evenodd" fill-opacity="1"/><path d="M1810.5 1367.5C1810.5 1353.14 1822.14 1341.5 1836.5 1341.5 1850.86 1341.5 1862.5 1353.14 1862.5 1367.5 1862.5 1381.86 1850.86 1393.5 1836.5 1393.5 1822.14 1393.5 1810.5 1381.86 1810.5 1367.5Z" stroke="#253134" stroke-width="3.4375" stroke-linecap="butt" stroke-linejoin="miter" stroke-miterlimit="8" stroke-opacity="1" fill="#FFFFFF" fill-rule="evenodd" fill-opacity="1"/><text fill="#000000" fill-opacity="1" font-family="Calibri,Calibri_MSFontService,sans-serif" font-style="normal" font-variant="normal" font-weight="400" font-stretch="normal" font-size="28" text-anchor="start" direction="ltr" writing-mode="lr-tb" unicode-bidi="normal" text-decoration="none" transform="matrix(1 0 0 1 1823.29 1377)">FE</text><path d="M1966.5 926.5 2044.46 926.5" fill="#FFFFFF" fill-rule="evenodd" fill-opacity="1"/><path d="M1966.5 924.781 2030.71 924.781 2030.71 928.219 1966.5 928.219ZM2026.13 917.333 2044.46 926.5 2026.13 935.667Z" fill="#253134" fill-rule="nonzero" fill-opacity="1"/><path d="M1966.5 1056.5 2044.46 1056.5" fill="#FFFFFF" fill-rule="evenodd" fill-opacity="1"/><path d="M1966.5 1054.78 2030.71 1054.78 2030.71 1058.22 1966.5 1058.22ZM2026.13 1047.33 2044.46 1056.5 2026.13 1065.67Z" fill="#253134" fill-rule="nonzero" fill-opacity="1"/><path d="M1966.5 1419.5 2044.46 1419.5" fill="#FFFFFF" fill-rule="evenodd" fill-opacity="1"/><path d="M1966.5 1417.78 2030.71 1417.78 2030.71 1421.22 1966.5 1421.22ZM2026.13 1410.33 2044.46 1419.5 2026.13 1428.67Z" fill="#253134" fill-rule="nonzero" fill-opacity="1"/><path d="M0 0 0.000360892 493.756" stroke="#253134" stroke-width="3.4375" stroke-linecap="butt" stroke-linejoin="miter" stroke-miterlimit="8" stroke-opacity="1" fill="#FFFFFF" fill-rule="evenodd" fill-opacity="1" transform="matrix(1 0 0 -1 2044.5 1420.26)"/><text fill="#000000" fill-opacity="1" font-family="Calibri,Calibri_MSFontService,sans-serif" font-style="normal" font-variant="normal" font-weight="400" font-stretch="normal" font-size="41" text-anchor="start" direction="ltr" writing-mode="lr-tb" unicode-bidi="normal" text-decoration="none" transform="matrix(1 0 0 1 836.763 1174)">Pump 2</text><text fill="#000000" fill-opacity="1" font-family="Calibri,Calibri_MSFontService,sans-serif" font-style="normal" font-variant="normal" font-weight="400" font-stretch="normal" font-size="41" text-anchor="start" direction="ltr" writing-mode="lr-tb" unicode-bidi="normal" text-decoration="none" transform="matrix(1 0 0 1 836.763 992)">Pump 1</text><text fill="#000000" fill-opacity="1" font-family="Calibri,Calibri_MSFontService,sans-serif" font-style="normal" font-variant="normal" font-weight="400" font-stretch="normal" font-size="41" text-anchor="start" direction="ltr" writing-mode="lr-tb" unicode-bidi="normal" text-decoration="none" transform="matrix(1 0 0 1 1243.47 888)">FCV 1</text><text fill="#000000" fill-opacity="1" font-family="Calibri,Calibri_MSFontService,sans-serif" font-style="normal" font-variant="normal" font-weight="400" font-stretch="normal" font-size="41" text-anchor="start" direction="ltr" writing-mode="lr-tb" unicode-bidi="normal" text-decoration="none" transform="matrix(1 0 0 1 1243.47 1018)">FCV 2</text><text fill="#000000" fill-opacity="1" font-family="Calibri,Calibri_MSFontService,sans-serif" font-style="normal" font-variant="normal" font-weight="400" font-stretch="normal" font-size="41" text-anchor="start" direction="ltr" writing-mode="lr-tb" unicode-bidi="normal" text-decoration="none" transform="matrix(1 0 0 1 1240.61 1382)">FCV </text><text fill="#000000" fill-opacity="1" font-family="Calibri,Calibri_MSFontService,sans-serif" font-style="normal" font-variant="normal" font-weight="400" font-stretch="normal" font-size="41" text-anchor="start" direction="ltr" writing-mode="lr-tb" unicode-bidi="normal" text-decoration="none" transform="matrix(1 0 0 1 1313.94 1382)">N</text><path d="M2044.5 1238.5 2330.36 1238.5" stroke="#253134" stroke-width="3.4375" stroke-linecap="butt" stroke-linejoin="miter" stroke-miterlimit="8" stroke-opacity="1" fill="#FFFFFF" fill-rule="evenodd" fill-opacity="1"/><path d="M0 0 77.9614 51.9743" stroke="#253134" stroke-width="3.4375" stroke-linecap="butt" stroke-linejoin="miter" stroke-miterlimit="8" stroke-opacity="1" fill="#FFFFFF" fill-rule="evenodd" fill-opacity="1" transform="matrix(1 0 0 -1 2252.5 1290.47)"/><path d="M2252.5 1289.5 2330.46 1341.47" stroke="#253134" stroke-width="3.4375" stroke-linecap="butt" stroke-linejoin="miter" stroke-miterlimit="8" stroke-opacity="1" fill="#FFFFFF" fill-rule="evenodd" fill-opacity="1"/><path d="M2148.5 1341.5 2330.41 1341.5" stroke="#253134" stroke-width="3.4375" stroke-linecap="butt" stroke-linejoin="miter" stroke-miterlimit="8" stroke-opacity="1" fill="#FFFFFF" fill-rule="evenodd" fill-opacity="1"/><path d="M0 0 0.000360892 363.82" stroke="#253134" stroke-width="3.4375" stroke-linecap="butt" stroke-linejoin="miter" stroke-miterlimit="8" stroke-opacity="1" fill="#FFFFFF" fill-rule="evenodd" fill-opacity="1" transform="matrix(1 0 0 -1 2148.5 1705.32)"/><path d="M0 0 909.55 0.000360892" fill="#FFFFFF" fill-rule="evenodd" fill-opacity="1" transform="matrix(-1 0 0 1 2148.05 1705.5)"/><path d="M6.81968e-07-1.71875 895.8-1.71839 895.8 1.71911-6.81968e-07 1.71875ZM891.217-9.16631 909.55 0.000360892 891.217 9.16702Z" fill="#253134" fill-rule="nonzero" fill-opacity="1" transform="matrix(-1 0 0 1 2148.05 1705.5)"/><text fill="#000000" fill-opacity="1" font-family="Calibri,Calibri_MSFontService,sans-serif" font-style="normal" font-variant="normal" font-weight="400" font-stretch="normal" font-size="41" text-anchor="start" direction="ltr" writing-mode="lr-tb" unicode-bidi="normal" text-decoration="none" transform="matrix(1 0 0 1 2394.9 1304)">Boiler</text><path d="M0 130 26 0 77.9998 0 104 130Z" stroke="#253134" stroke-width="3.4375" stroke-linecap="butt" stroke-linejoin="miter" stroke-miterlimit="8" stroke-opacity="1" fill="#FFFFFF" fill-rule="evenodd" fill-opacity="1" transform="matrix(6.12323e-17 1 1 -6.12323e-17 2434.5 952.5)"/><path d="M2304.5 1108.5 2304.5 1212.45" stroke="#FF0000" stroke-width="3.4375" stroke-linecap="butt" stroke-linejoin="miter" stroke-miterlimit="8" stroke-opacity="1" fill="#FFFFFF" fill-rule="evenodd" fill-opacity="1"/><path d="M2304.5 1108.5 2434.44 1108.5" stroke="#FF0000" stroke-width="3.4375" stroke-linecap="butt" stroke-linejoin="miter" stroke-miterlimit="8" stroke-opacity="1" fill="#FFFFFF" fill-rule="evenodd" fill-opacity="1"/><path d="M2304.5 1471.5 2694.31 1471.5" stroke="#0070C0" stroke-width="3.4375" stroke-linecap="butt" stroke-linejoin="miter" stroke-miterlimit="8" stroke-opacity="1" fill="#FFFFFF" fill-rule="evenodd" fill-opacity="1"/><path d="M0 0 0.000360892 103.949" fill="#FFFFFF" fill-rule="evenodd" fill-opacity="1" transform="matrix(1 0 0 -1 2304.5 1471.45)"/><path d="M1.71875-5.96722e-06 1.71906 90.1985-1.71844 90.1985-1.71875 5.96722e-06ZM9.16696 85.6152 0.000360892 103.949-9.16637 85.6153Z" fill="#0070C0" fill-rule="nonzero" fill-opacity="1" transform="matrix(1 0 0 -1 2304.5 1471.45)"/><path d="M2694.5 1004.5C2694.5 975.781 2717.78 952.5 2746.5 952.5 2775.22 952.5 2798.5 975.781 2798.5 1004.5 2798.5 1033.22 2775.22 1056.5 2746.5 1056.5 2717.78 1056.5 2694.5 1033.22 2694.5 1004.5Z" stroke="#253134" stroke-width="3.4375" stroke-linecap="butt" stroke-linejoin="miter" stroke-miterlimit="8" stroke-opacity="1" fill="#FFFFFF" fill-rule="evenodd" fill-opacity="1"/><text fill="#000000" fill-opacity="1" font-family="Calibri,Calibri_MSFontService,sans-serif" font-style="normal" font-variant="normal" font-weight="400" font-stretch="normal" font-size="41" text-anchor="start" direction="ltr" writing-mode="lr-tb" unicode-bidi="normal" text-decoration="none" transform="matrix(1 0 0 1 2732.84 1018)">G</text><text fill="#000000" fill-opacity="1" font-family="Calibri,Calibri_MSFontService,sans-serif" font-style="normal" font-variant="normal" font-weight="400" font-stretch="normal" font-size="41" text-anchor="start" direction="ltr" writing-mode="lr-tb" unicode-bidi="normal" text-decoration="none" transform="matrix(1 0 0 1 2433.83 927)">Turbine</text><text fill="#000000" fill-opacity="1" font-family="Calibri,Calibri_MSFontService,sans-serif" font-style="normal" font-variant="normal" font-weight="400" font-stretch="normal" font-size="41" text-anchor="start" direction="ltr" writing-mode="lr-tb" unicode-bidi="normal" text-decoration="none" transform="matrix(1 0 0 1 2659.51 927)">Generator</text><path d="M0 0 0.000360892 77.9614" fill="#FFFFFF" fill-rule="evenodd" fill-opacity="1" transform="matrix(1 0 0 -1 2434.5 1108.46)"/><path d="M1.71875-7.95629e-06 1.71905 64.2114-1.71845 64.2114-1.71875 7.95629e-06ZM9.16694 59.628 0.000360892 77.9614-9.16639 59.6281Z" fill="#FF0000" fill-rule="nonzero" fill-opacity="1" transform="matrix(1 0 0 -1 2434.5 1108.46)"/><path d="M1264.5 1043.5 1290.5 1056.5 1264.5 1069.5Z" stroke="#253134" stroke-width="3.4375" stroke-linecap="butt" stroke-linejoin="miter" stroke-miterlimit="8" stroke-opacity="1" fill="#FFFFFF" fill-rule="evenodd" fill-opacity="1"/><path d="M0 26.0001 12.9999 0 25.9998 26.0001Z" stroke="#253134" stroke-width="3.4375" stroke-linecap="butt" stroke-linejoin="miter" stroke-miterlimit="8" stroke-opacity="1" fill="#FFFFFF" fill-rule="evenodd" fill-opacity="1" transform="matrix(6.12323e-17 1 1 -6.12323e-17 1290.5 1043.5)"/><rect x="1810.5" y="1043.5" width="51.9999" height="25.9998" stroke="#253134" stroke-width="3.4375" stroke-linecap="butt" stroke-linejoin="miter" stroke-miterlimit="8" stroke-opacity="1" fill="#FFFFFF" fill-opacity="1"/><path d="M1836.5 1030.5 1836.5 1043.49" stroke="#253134" stroke-width="3.4375" stroke-linecap="butt" stroke-linejoin="miter" stroke-miterlimit="8" stroke-opacity="1" fill="#FFFFFF" fill-rule="evenodd" fill-opacity="1"/><path d="M1810.5 1004.5C1810.5 990.141 1822.14 978.5 1836.5 978.5 1850.86 978.5 1862.5 990.141 1862.5 1004.5 1862.5 1018.86 1850.86 1030.5 1836.5 1030.5 1822.14 1030.5 1810.5 1018.86 1810.5 1004.5Z" stroke="#253134" stroke-width="3.4375" stroke-linecap="butt" stroke-linejoin="miter" stroke-miterlimit="8" stroke-opacity="1" fill="#FFFFFF" fill-rule="evenodd" fill-opacity="1"/><text fill="#000000" fill-opacity="1" font-family="Calibri,Calibri_MSFontService,sans-serif" font-style="normal" font-variant="normal" font-weight="400" font-stretch="normal" font-size="28" text-anchor="start" direction="ltr" writing-mode="lr-tb" unicode-bidi="normal" text-decoration="none" transform="matrix(1 0 0 1 1823.29 1013)">FE</text><path d="M1264.5 913.5 1290.5 926.5 1264.5 939.5Z" stroke="#253134" stroke-width="3.4375" stroke-linecap="butt" stroke-linejoin="miter" stroke-miterlimit="8" stroke-opacity="1" fill="#FFFFFF" fill-rule="evenodd" fill-opacity="1"/><path d="M0 26.0001 13.0001 0 26.0001 26.0001Z" stroke="#253134" stroke-width="3.4375" stroke-linecap="butt" stroke-linejoin="miter" stroke-miterlimit="8" stroke-opacity="1" fill="#FFFFFF" fill-rule="evenodd" fill-opacity="1" transform="matrix(6.12323e-17 1 1 -6.12323e-17 1290.5 913.5)"/><rect x="1810.5" y="913.5" width="51.9999" height="26.0001" stroke="#253134" stroke-width="3.4375" stroke-linecap="butt" stroke-linejoin="miter" stroke-miterlimit="8" stroke-opacity="1" fill="#FFFFFF" fill-opacity="1"/><path d="M1836.5 900.5 1836.5 913.494" stroke="#253134" stroke-width="3.4375" stroke-linecap="butt" stroke-linejoin="miter" stroke-miterlimit="8" stroke-opacity="1" fill="#FFFFFF" fill-rule="evenodd" fill-opacity="1"/><path d="M1810.5 874.5C1810.5 860.141 1822.14 848.5 1836.5 848.5 1850.86 848.5 1862.5 860.141 1862.5 874.5 1862.5 888.859 1850.86 900.5 1836.5 900.5 1822.14 900.5 1810.5 888.859 1810.5 874.5Z" stroke="#253134" stroke-width="3.4375" stroke-linecap="butt" stroke-linejoin="miter" stroke-miterlimit="8" stroke-opacity="1" fill="#FFFFFF" fill-rule="evenodd" fill-opacity="1"/><text fill="#000000" fill-opacity="1" font-family="Calibri,Calibri_MSFontService,sans-serif" font-style="normal" font-variant="normal" font-weight="400" font-stretch="normal" font-size="28" text-anchor="start" direction="ltr" writing-mode="lr-tb" unicode-bidi="normal" text-decoration="none" transform="matrix(1 0 0 1 1823.29 883)">FE</text><path d="M2564.5 1056.5 2564.5 1108.47" stroke="#FF0000" stroke-width="3.4375" stroke-linecap="butt" stroke-linejoin="miter" stroke-miterlimit="8" stroke-opacity="1" fill="#FFFFFF" fill-rule="evenodd" fill-opacity="1"/><path d="M2564.5 1108.5 2694.44 1108.5" stroke="#FF0000" stroke-width="3.4375" stroke-linecap="butt" stroke-linejoin="miter" stroke-miterlimit="8" stroke-opacity="1" fill="#FFFFFF" fill-rule="evenodd" fill-opacity="1"/><path d="M2694.5 1108.5 2694.5 1212.45" fill="#FFFFFF" fill-rule="evenodd" fill-opacity="1"/><path d="M2696.22 1108.5 2696.22 1198.7 2692.78 1198.7 2692.78 1108.5ZM2703.67 1194.12 2694.5 1212.45 2685.33 1194.12Z" fill="#FF0000" fill-rule="nonzero" fill-opacity="1"/><path d="M2616.5 1290C2616.5 1247.2 2651.42 1212.5 2694.5 1212.5 2737.58 1212.5 2772.5 1247.2 2772.5 1290 2772.5 1332.8 2737.58 1367.5 2694.5 1367.5 2651.42 1367.5 2616.5 1332.8 2616.5 1290Z" stroke="#253134" stroke-width="3.4375" stroke-linecap="butt" stroke-linejoin="miter" stroke-miterlimit="8" stroke-opacity="1" fill="#FFFFFF" fill-rule="evenodd" fill-opacity="1"/><text fill="#000000" fill-opacity="1" font-family="Calibri,Calibri_MSFontService,sans-serif" font-style="normal" font-variant="normal" font-weight="400" font-stretch="normal" font-size="41" text-anchor="start" direction="ltr" writing-mode="lr-tb" unicode-bidi="normal" text-decoration="none" transform="matrix(1 0 0 1 2784.71 1304)">Condenser</text><path d="M0 0 0.000360892 103.949" stroke="#0070C0" stroke-width="3.4375" stroke-linecap="butt" stroke-linejoin="miter" stroke-miterlimit="8" stroke-opacity="1" fill="#FFFFFF" fill-rule="evenodd" fill-opacity="1" transform="matrix(1 0 0 -1 2694.5 1471.45)"/><path d="M2564.5 997.5 2694.44 997.5" stroke="#253134" stroke-width="3.4375" stroke-linecap="butt" stroke-linejoin="miter" stroke-miterlimit="8" stroke-opacity="1" fill="#FFFFFF" fill-rule="evenodd" fill-opacity="1"/><path d="M2564.5 1010.5 2694.44 1010.5" stroke="#253134" stroke-width="3.4375" stroke-linecap="butt" stroke-linejoin="miter" stroke-miterlimit="8" stroke-opacity="1" fill="#FFFFFF" fill-rule="evenodd" fill-opacity="1"/><path d="M2746.46 1290.47 2668.5 1238.5" stroke="#253134" stroke-width="3.4375" stroke-linecap="butt" stroke-linejoin="miter" stroke-miterlimit="8" stroke-opacity="1" fill="#FFFFFF" fill-rule="evenodd" fill-opacity="1"/><path d="M0 0 77.9614 51.9743" stroke="#253134" stroke-width="3.4375" stroke-linecap="butt" stroke-linejoin="miter" stroke-miterlimit="8" stroke-opacity="1" fill="#FFFFFF" fill-rule="evenodd" fill-opacity="1" transform="matrix(-1 0 0 1 2746.46 1289.5)"/><path d="M0 0 181.91 0.000360892" stroke="#253134" stroke-width="3.4375" stroke-linecap="butt" stroke-linejoin="miter" stroke-miterlimit="8" stroke-opacity="1" fill="#FFFFFF" fill-rule="evenodd" fill-opacity="1" transform="matrix(-1 0 0 1 2850.41 1341.5)"/><path d="M0 0 181.91 0.000360892" stroke="#253134" stroke-width="3.4375" stroke-linecap="butt" stroke-linejoin="miter" stroke-miterlimit="8" stroke-opacity="1" fill="#FFFFFF" fill-rule="evenodd" fill-opacity="1" transform="matrix(-1 0 0 1 2850.41 1238.5)"/><text fill="#000000" fill-opacity="1" font-family="Calibri,Calibri_MSFontService,sans-serif" font-style="normal" font-variant="normal" font-weight="400" font-stretch="normal" font-size="41" text-anchor="start" direction="ltr" writing-mode="lr-tb" unicode-bidi="normal" text-decoration="none" transform="matrix(1 0 0 1 1433.26 888)">Solar Collectors</text><rect x="1914.5" y="1406.5" width="52.0002" height="25.9998" stroke="#253134" stroke-width="3.4375" stroke-linecap="butt" stroke-linejoin="miter" stroke-miterlimit="8" stroke-opacity="1" fill="#FFFFFF" fill-opacity="1"/><path d="M1940.5 1393.5 1940.5 1406.49" stroke="#253134" stroke-width="3.4375" stroke-linecap="butt" stroke-linejoin="miter" stroke-miterlimit="8" stroke-opacity="1" fill="#FFFFFF" fill-rule="evenodd" fill-opacity="1"/><path d="M1914.5 1367.5C1914.5 1353.14 1926.14 1341.5 1940.5 1341.5 1954.86 1341.5 1966.5 1353.14 1966.5 1367.5 1966.5 1381.86 1954.86 1393.5 1940.5 1393.5 1926.14 1393.5 1914.5 1381.86 1914.5 1367.5Z" stroke="#253134" stroke-width="3.4375" stroke-linecap="butt" stroke-linejoin="miter" stroke-miterlimit="8" stroke-opacity="1" fill="#FFFFFF" fill-rule="evenodd" fill-opacity="1"/><text fill="#000000" fill-opacity="1" font-family="Calibri,Calibri_MSFontService,sans-serif" font-style="normal" font-variant="normal" font-weight="400" font-stretch="normal" font-size="28" text-anchor="start" direction="ltr" writing-mode="lr-tb" unicode-bidi="normal" text-decoration="none" transform="matrix(1 0 0 1 1926.95 1377)">TE</text><rect x="1914.5" y="1043.5" width="52.0002" height="25.9998" stroke="#253134" stroke-width="3.4375" stroke-linecap="butt" stroke-linejoin="miter" stroke-miterlimit="8" stroke-opacity="1" fill="#FFFFFF" fill-opacity="1"/><path d="M1940.5 1030.5 1940.5 1043.49" stroke="#253134" stroke-width="3.4375" stroke-linecap="butt" stroke-linejoin="miter" stroke-miterlimit="8" stroke-opacity="1" fill="#FFFFFF" fill-rule="evenodd" fill-opacity="1"/><path d="M1914.5 1004.5C1914.5 990.141 1926.14 978.5 1940.5 978.5 1954.86 978.5 1966.5 990.141 1966.5 1004.5 1966.5 1018.86 1954.86 1030.5 1940.5 1030.5 1926.14 1030.5 1914.5 1018.86 1914.5 1004.5Z" stroke="#253134" stroke-width="3.4375" stroke-linecap="butt" stroke-linejoin="miter" stroke-miterlimit="8" stroke-opacity="1" fill="#FFFFFF" fill-rule="evenodd" fill-opacity="1"/><text fill="#000000" fill-opacity="1" font-family="Calibri,Calibri_MSFontService,sans-serif" font-style="normal" font-variant="normal" font-weight="400" font-stretch="normal" font-size="28" text-anchor="start" direction="ltr" writing-mode="lr-tb" unicode-bidi="normal" text-decoration="none" transform="matrix(1 0 0 1 1926.95 1013)">TE</text><rect x="1914.5" y="913.5" width="52.0002" height="26.0001" stroke="#253134" stroke-width="3.4375" stroke-linecap="butt" stroke-linejoin="miter" stroke-miterlimit="8" stroke-opacity="1" fill="#FFFFFF" fill-opacity="1"/><path d="M1940.5 900.5 1940.5 913.494" stroke="#253134" stroke-width="3.4375" stroke-linecap="butt" stroke-linejoin="miter" stroke-miterlimit="8" stroke-opacity="1" fill="#FFFFFF" fill-rule="evenodd" fill-opacity="1"/><path d="M1914.5 874.5C1914.5 860.141 1926.14 848.5 1940.5 848.5 1954.86 848.5 1966.5 860.141 1966.5 874.5 1966.5 888.859 1954.86 900.5 1940.5 900.5 1926.14 900.5 1914.5 888.859 1914.5 874.5Z" stroke="#253134" stroke-width="3.4375" stroke-linecap="butt" stroke-linejoin="miter" stroke-miterlimit="8" stroke-opacity="1" fill="#FFFFFF" fill-rule="evenodd" fill-opacity="1"/><text fill="#000000" fill-opacity="1" font-family="Calibri,Calibri_MSFontService,sans-serif" font-style="normal" font-variant="normal" font-weight="400" font-stretch="normal" font-size="28" text-anchor="start" direction="ltr" writing-mode="lr-tb" unicode-bidi="normal" text-decoration="none" transform="matrix(1 0 0 1 1926.95 883)">TE</text><path d="M1862.5 926.5 1914.47 926.5" stroke="#253134" stroke-width="3.4375" stroke-linecap="butt" stroke-linejoin="miter" stroke-miterlimit="8" stroke-opacity="1" fill="#FFFFFF" fill-rule="evenodd" fill-opacity="1"/><path d="M1862.5 1056.5 1914.47 1056.5" stroke="#253134" stroke-width="3.4375" stroke-linecap="butt" stroke-linejoin="miter" stroke-miterlimit="8" stroke-opacity="1" fill="#FFFFFF" fill-rule="evenodd" fill-opacity="1"/><path d="M1862.5 1419.5 1914.47 1419.5" stroke="#253134" stroke-width="3.4375" stroke-linecap="butt" stroke-linejoin="miter" stroke-miterlimit="8" stroke-opacity="1" fill="#FFFFFF" fill-rule="evenodd" fill-opacity="1"/><rect x="875.5" y="1692.5" width="51.9999" height="25.9998" stroke="#253134" stroke-width="3.4375" stroke-linecap="butt" stroke-linejoin="miter" stroke-miterlimit="8" stroke-opacity="1" fill="#FFFFFF" fill-opacity="1"/><path d="M901.5 1679.5 901.501 1692.49" stroke="#253134" stroke-width="3.4375" stroke-linecap="butt" stroke-linejoin="miter" stroke-miterlimit="8" stroke-opacity="1" fill="#FFFFFF" fill-rule="evenodd" fill-opacity="1"/><path d="M875.5 1653.5C875.5 1639.14 887.141 1627.5 901.5 1627.5 915.859 1627.5 927.5 1639.14 927.5 1653.5 927.5 1667.86 915.859 1679.5 901.5 1679.5 887.141 1679.5 875.5 1667.86 875.5 1653.5Z" stroke="#253134" stroke-width="3.4375" stroke-linecap="butt" stroke-linejoin="miter" stroke-miterlimit="8" stroke-opacity="1" fill="#FFFFFF" fill-rule="evenodd" fill-opacity="1"/><text fill="#000000" fill-opacity="1" font-family="Calibri,Calibri_MSFontService,sans-serif" font-style="normal" font-variant="normal" font-weight="400" font-stretch="normal" font-size="28" text-anchor="start" direction="ltr" writing-mode="lr-tb" unicode-bidi="normal" text-decoration="none" transform="matrix(1 0 0 1 887.466 1663)">TE</text><path d="M0 0 207.897 0.000360892" stroke="#253134" stroke-width="3.4375" stroke-linecap="butt" stroke-linejoin="miter" stroke-miterlimit="8" stroke-opacity="1" fill="#FFFFFF" fill-rule="evenodd" fill-opacity="1" transform="matrix(-1 0 0 1 1135.4 1705.5)"/><text fill="#000000" fill-opacity="1" font-family="Cambria Math,Cambria Math_MSFontService,sans-serif" font-style="normal" font-variant="normal" font-weight="400" font-stretch="normal" font-size="41" text-anchor="start" direction="ltr" writing-mode="lr-tb" unicode-bidi="normal" text-decoration="none" transform="matrix(1 0 0 1 1279.56 1239)">⋮</text><text fill="#000000" fill-opacity="1" font-family="Cambria Math,Cambria Math_MSFontService,sans-serif" font-style="normal" font-variant="normal" font-weight="400" font-stretch="normal" font-size="41" text-anchor="start" direction="ltr" writing-mode="lr-tb" unicode-bidi="normal" text-decoration="none" transform="matrix(1 0 0 1 1565.42 1239)">⋮</text><text fill="#000000" fill-opacity="1" font-family="Cambria Math,Cambria Math_MSFontService,sans-serif" font-style="normal" font-variant="normal" font-weight="400" font-stretch="normal" font-size="41" text-anchor="start" direction="ltr" writing-mode="lr-tb" unicode-bidi="normal" text-decoration="none" transform="matrix(1 0 0 1 1929.24 1239)">⋮</text><text fill="#000000" fill-opacity="1" font-family="Cambria Math,Cambria Math_MSFontService,sans-serif" font-style="normal" font-variant="normal" font-weight="400" font-stretch="normal" font-size="41" text-anchor="start" direction="ltr" writing-mode="lr-tb" unicode-bidi="normal" text-decoration="none" transform="matrix(1 0 0 1 1825.29 1239)">⋮</text></g></g></svg>